<svg width="74" height="40" viewBox="140 0 74 40" fill="none" xmlns="http://www.w3.org/2000/svg">
  <path d="M206.294 39.7658C206.294 39.7658 182.176 28.2525 147.437 39.7658H206.294Z" fill="#635BFE" />
  <path d="M187.174 33.1553C196.757 33.9986 204.099 36.0741 208.587 37.6763C208.692 37.6248 208.8 37.5803 208.905 37.5264C210.231 36.8447 211.405 36.0295 212.428 35.0832L208.964 30.2554C207.601 31.4289 206.331 32.2441 205.157 32.6986C203.984 33.153 202.696 33.3802 201.295 33.3802C199.287 33.3802 197.526 33.0007 196.012 32.2441C194.534 31.4477 193.38 30.3327 192.548 28.892C192.014 27.9246 191.663 26.8447 191.487 25.6548H213.565L213.621 23.2116C213.658 21.0916 213.337 19.1403 212.656 17.3601C212.012 15.5423 211.065 13.9893 209.817 12.7009C208.566 11.3751 207.09 10.335 205.385 9.57605C203.682 8.81943 201.843 8.43995 199.875 8.43995C197.64 8.43995 195.577 8.83817 193.684 9.63227C191.829 10.3889 190.22 11.4875 188.856 12.9281C187.53 14.3289 186.49 15.9968 185.731 17.9269C184.975 19.8595 184.595 21.9982 184.595 24.3453C184.595 27.2992 185.258 29.9321 186.584 32.2418C186.771 32.5557 186.971 32.8578 187.179 33.153L187.174 33.1553ZM195.157 15.7157C196.446 14.9965 198.018 14.6358 199.873 14.6358C201.084 14.6358 202.183 14.9005 203.169 15.4322C204.19 15.9241 205.024 16.6245 205.668 17.5334C206.312 18.4048 206.692 19.4261 206.804 20.602V20.8855H191.639C191.798 20.1336 192.023 19.4496 192.318 18.8405C192.963 17.4772 193.909 16.4348 195.16 15.7157H195.157Z" fill="#635BFE" />
  <path d="M147.437 24.8255C147.437 21.1525 147.343 17.9902 147.153 15.3385C147.097 14.3312 147.015 13.3357 146.922 12.3495L157.437 28.9717H161.187L171.991 12.2956C171.876 13.4013 171.775 14.5093 171.698 15.6219C171.546 18.3486 171.471 21.4172 171.471 24.8255V33.0124C174.008 32.8414 176.451 32.7688 178.798 32.7782V8.58307e-06H172.152L159.538 20.2413L147.095 8.58307e-06H140.107V39.7658C142.595 38.8639 145.038 38.0698 147.435 37.3647V24.8255H147.437Z" fill="#635BFE" />
</svg>
